Full Metal Jacket (1987) Digitally Restored & Remastered

Director: Stanley Kubrick

Full Metal Jacket is a 1987 war film by Stanley Kubrick, based on the novel The Short-Timers by Gustav Hasford. It stars Matthew Modine, Vincent D'Onofrio, and former U.S. Marine Sergeant R. Lee Ermey. The title refers to the full metal jacket bullet used by infantry riflemen. The film follows a platoon of U.S. Marines through their training and depicts some of the experiences of two of them in the Tet Offensive (1968) during the Vietnam War.

There have been many movies made about the Vietnam war, from epics like Apocalypse Now, to the worthy Platoon and The Deer Hunter. However, nobody managed to show the dehumanising effect of war as memorably as Stanley Kubrick did with Full Metal Jacket.

The film received a nomination for an Academy Award for Best Writing for an adapted screenplay. Ermey was nominated for a Golden Globe for Best Supporting Actor.

Full Metal Jacket ranks 457th on Empire's 2008 list of the 500 greatest movies of all time.

Media Info:
General
Complete name                    : J:\Seeding\Full Metal Jacket (1987)[DVDRip][big_dad_e™]\Full Metal Jacket (1987)[DVDRip][big_dad_e™].avi
Format                           : AVI
Format/Info                      : Audio Video Interleave
Format profile                   : OpenDML
File size                        : 1.47 GiB
Duration                         : 1h 56mn
Overall bit rate                 : 1 804 Kbps
Movie name                       : FULL_METAL_JACKET.Title1.DVDRip
Writing application              : Lavf52.78.4
Original source form/Name        : FULL_METAL_JACKET

Video
ID                               : 0
Format                           : MPEG-4 Visual
Format profile                   : Advanced Simple@L5
Format settings, BVOP            : 2
Format settings, QPel            : No
Format settings, GMC             : No warppoints
Format settings, Matrix          : Default (H.263)
Muxing mode                      : Packed bitstream
Codec ID                         : XVID
Codec ID/Hint                    : XviD
Duration                         : 1h 56mn
Bit rate                         : 1 470 Kbps
Width                            : 640 pixels
Height                           : 480 pixels
Display aspect ratio             : 4:3
Frame rate                       : 23.976 fps
Color space                      : YUV
Chroma subsampling               : 4:2:0
Bit depth                        : 8 bits
Scan type                        : Progressive
Compression mode                 : Lossy
Bits/(Pixel*Frame)               : 0.200
Stream size                      : 1.20 GiB (81%)
Writing library                  : XviD 1.2.1 (UTC 2008-12-04)

Audio
ID                               : 1
Format                           : MPEG Audio
Format version                   : Version 1
Format profile                   : Layer 3
Mode                             : Joint stereo
Codec ID                         : 55
Codec ID/Hint                    : MP3
Duration                         : 1h 56mn
Bit rate mode                    : Constant
Bit rate                         : 320 Kbps
Channel(s)                       : 2 channels
Sampling rate                    : 48.0 KHz
Compression mode                 : Lossy
Stream size                      : 88.0 MiB (6%)
Alignment                        : Aligned on interleaves
Interleave, duration             : 73 ms (1.74 video frames)
Interleave, preload duration     : 24 ms
Writing library                  : LAME

File Scan:
Malwarebytes' Anti-Malware 1.50.1.1100
www.malwarebytes.org

Database version: 6307
4/7/2011 7:20:58 PM
mbam-log-2011-04-07 (19-20-58).txt

Scan type: Quick scan
Objects scanned: 5
Time elapsed: 46 second(s)

Memory Processes Infected: 0
Memory Modules Infected: 0
Registry Keys Infected: 0
Registry Values Infected: 0
Registry Data Items Infected: 0
Folders Infected: 0
Files Infected: 0

Memory Processes Infected:
(No malicious items detected)

Memory Modules Infected:
(No malicious items detected)

Registry Keys Infected:
(No malicious items detected)

Registry Values Infected:
(No malicious items detected)

Registry Data Items Infected:
(No malicious items detected)

Folders Infected:
(No malicious items detected)

Files Infected:
(No malicious items detected)

When using TPB please read these important notes:
  
01- Anti-malware apps may warn about keygens, patches, cracks, etc., because of 
    their capabilities, (generating codes, etc.). Sometimes they're added to 
    the virus/spyware database and will be detected as malware. If you don't trust
    the keygens, patches, cracks, etc., don't use them. 
    
02- Before running .exe-files, keygens, patches, cracks, etc., always check first 
    if they can be unpacked. Often some third party added a virus to the 
    original file, repacked it and uploaded it again.

03- Letting anti-malware apps send scan results to their companies can cause
    keygens, patches, cracks, etc., to be added to their virus-database.

04- Firewalls which are set to automatically determine connections will allow 
    apps & malware!. Avoid this by manually configuring your firewall.

05- Usually (new) torrents with many downloads and seeders in a brief period is
    suspicious! Torrents with the Skull & Crossbones icon are trusted.

06- Some people use multiple accounts and post fake comments 
    and/or files trying to spread confusion. They seldom seriously
    comment or have any torrents, or a just a few to look passable.

07- Clicking on unknown links can cause malware to be installed on your machine.
  
08- In general often there are more fake and negative comments than reliable and
    positive comments.

09- In some countries uploading/downloading copyright protected material is 
    forbidden, but showing some appreciation to reliable up-loaders is not.

10- Posting fake and negative comments or fake/infected uploads on TPB can result
    in getting banned from TPB!

Requests?  Find me on SuprBay. http://forum.suprbay.org
 

For reporting bad or suspicious torrents:  
http://forum.suprbay.org/forumdisplay.php?fid=29

For more of my torrents: 
https://thepiratebay.org/user/big_dad_e/  (Secured)

All torrents scanned with:
Norton Anti-virus
Malwarebytes' Anti-malware
 
http://www.pirate-party.us/

ALWAYS SEED & THANKS SEEDERS!